<?xml version="1.0" encoding="utf-8"?>
<!-- Generator: Adobe Illustrator 23.0.3, SVG Export Plug-In . SVG Version: 6.00 Build 0)  -->
<svg version="1.1" id="Calque_1" xmlns="http://www.w3.org/2000/svg" xmlns:xlink="http://www.w3.org/1999/xlink" x="0px" y="0px"
	 viewBox="0 0 92.9 36.8" style="enable-background:new 0 0 92.9 36.8;" xml:space="preserve">
<style type="text/css">
	.st0{fill:#FFFFFF;}
</style>
<g>
	<g>
		<path class="st0" d="M36.3,17.2H30v-1.8c0-0.1,0-0.3,0-0.4c0.2-6.1,5.2-11,11.4-11c3.2,0,6.2,1.4,8.2,3.5c2.1-2.2,5-3.5,8.2-3.5
			C64,4,69,8.9,69.2,14.9c0,0.1,0,0.3,0,0.4v1.8h-6.3v-1.8c0-2.8-2.3-5.1-5.1-5.1c-2.8,0-5.1,2.3-5.1,5.1v-0.4h0c0,0.1,0,0.3,0,0.4
			v8.9h-6.3v-8.9c0-0.1,0-0.3,0-0.4h0v0.4c0-2.8-2.3-5.1-5.1-5.1c-2.8,0-5.1,2.3-5.1,5.1V17.2z M46.5,29.5v3.4h6.3v-3.4H46.5z"/>
		<path class="st0" d="M84.9,21.6h6.6c-0.2,0.9-0.5,1.8-0.9,2.7H83C83.8,23.5,84.5,22.6,84.9,21.6z M70,14.9
			c1.3-2.7,4.1-4.6,7.4-4.6c3.4,0,6.3,2.1,7.5,5h6.6C90,8.8,84.3,4,77.4,4c-3.8,0-7.3,1.5-9.9,3.9C69,9.8,69.9,12.3,70,14.9
			C70,14.9,70,14.9,70,14.9z M71.7,24.3c-1.5-1.5-2.5-3.6-2.5-5.9c0-0.1,0-0.3,0-0.4H63c0,0.1,0,0.3,0,0.4c0,2.1,0.4,4.1,1.2,5.9
			H71.7z M68.1,29.5c2.5,2.1,5.8,3.4,9.3,3.4c3.5,0,6.8-1.3,9.3-3.4H68.1z"/>
		<path class="st0" d="M20.2,18h16.2v6.3H20.2V18z M10.2,24.3c-1.5-1.5-2.5-3.6-2.5-5.9c0-4.5,3.7-8.2,8.2-8.2c2.5,0,4.8,1.2,6.3,3
			h7.2C27.2,7.8,22,4,15.8,4c-8,0-14.4,6.5-14.4,14.4c0,2.1,0.4,4.1,1.2,5.9H10.2z M6.5,29.5c2.5,2.1,5.8,3.4,9.3,3.4
			c3.5,0,6.8-1.3,9.3-3.4H6.5z"/>
		<g>
			<path class="st0" d="M6.9,25.9l-0.4,0.4C6.3,26,6,25.9,5.6,25.9c-0.3,0-0.5,0.1-0.7,0.3c-0.2,0.2-0.3,0.4-0.3,0.7
				c0,0.3,0.1,0.5,0.3,0.7c0.2,0.2,0.5,0.3,0.8,0.3c0.2,0,0.4,0,0.5-0.1c0.1-0.1,0.2-0.2,0.3-0.4H5.6v-0.5h1.5l0,0.1
				c0,0.3-0.1,0.5-0.2,0.8c-0.1,0.2-0.3,0.4-0.5,0.5c-0.2,0.1-0.5,0.2-0.8,0.2c-0.3,0-0.6-0.1-0.8-0.2c-0.2-0.1-0.4-0.3-0.6-0.6
				C4.1,27.4,4,27.2,4,26.9c0-0.4,0.1-0.8,0.4-1c0.3-0.4,0.7-0.5,1.2-0.5c0.3,0,0.5,0,0.7,0.1C6.6,25.5,6.8,25.7,6.9,25.9z"/>
			<path class="st0" d="M7.7,25.4h0.6v2.5h0.8v0.6H7.7V25.4z"/>
			<path class="st0" d="M11.1,25.3c0.4,0,0.8,0.2,1.1,0.5c0.3,0.3,0.5,0.7,0.5,1.1c0,0.4-0.2,0.8-0.5,1.1c-0.3,0.3-0.7,0.5-1.1,0.5
				c-0.5,0-0.8-0.2-1.1-0.5c-0.3-0.3-0.5-0.7-0.5-1.1c0-0.3,0.1-0.6,0.2-0.8c0.1-0.2,0.3-0.4,0.6-0.6C10.5,25.4,10.8,25.3,11.1,25.3
				z M11.1,25.9c-0.3,0-0.5,0.1-0.7,0.3c-0.2,0.2-0.3,0.4-0.3,0.7c0,0.3,0.1,0.6,0.4,0.8c0.2,0.2,0.4,0.2,0.6,0.2
				c0.3,0,0.5-0.1,0.7-0.3c0.2-0.2,0.3-0.4,0.3-0.7c0-0.3-0.1-0.5-0.3-0.7C11.6,26,11.4,25.9,11.1,25.9z"/>
			<path class="st0" d="M13.3,28.4v-3h0.5c0.3,0,0.5,0,0.6,0.1c0.2,0,0.3,0.1,0.4,0.3c0.1,0.1,0.2,0.3,0.2,0.5c0,0.1,0,0.2-0.1,0.3
				c0,0.1-0.1,0.2-0.2,0.3c0.2,0.1,0.3,0.2,0.4,0.3c0.1,0.1,0.1,0.3,0.1,0.5c0,0.2,0,0.3-0.1,0.5c-0.1,0.1-0.2,0.2-0.3,0.3
				c-0.1,0.1-0.3,0.1-0.6,0.1H13.3z M13.8,25.9v0.6H14c0.1,0,0.2,0,0.3-0.1c0.1-0.1,0.1-0.1,0.1-0.2c0-0.1,0-0.2-0.1-0.2
				c-0.1-0.1-0.2-0.1-0.3-0.1H13.8z M13.8,27.1v0.8H14c0.2,0,0.4,0,0.5-0.1c0.1-0.1,0.1-0.1,0.1-0.3c0-0.1,0-0.2-0.1-0.3
				c-0.1-0.1-0.3-0.1-0.5-0.1H13.8z"/>
			<path class="st0" d="M16.7,25.4h0.6l1.2,3h-0.6l-0.2-0.6h-1.2l-0.2,0.6h-0.6L16.7,25.4z M17,26.2l-0.4,1h0.8L17,26.2z"/>
			<path class="st0" d="M18.9,25.4h0.6v2.5h0.8v0.6h-1.4V25.4z"/>
			<path class="st0" d="M22.4,25.4H23l0.7,2.1l0.7-2.1h0.6l0.5,3h-0.6l-0.3-1.9l-0.6,1.9h-0.5l-0.6-1.9l-0.3,1.9h-0.6L22.4,25.4z"/>
			<path class="st0" d="M26.9,25.4h0.6l1.2,3H28l-0.2-0.6h-1.2l-0.2,0.6h-0.6L26.9,25.4z M27.2,26.2l-0.4,1h0.8L27.2,26.2z"/>
			<path class="st0" d="M29.2,25.4h0.6c0.3,0,0.6,0,0.7,0.1c0.1,0.1,0.3,0.2,0.3,0.3c0.1,0.1,0.1,0.3,0.1,0.5c0,0.2,0,0.4-0.1,0.5
				c-0.1,0.1-0.2,0.2-0.4,0.3l0.7,1.3h-0.6l-0.7-1.3h-0.1v1.3h-0.6V25.4z M29.8,26.5h0.2c0.2,0,0.3,0,0.4-0.1c0.1,0,0.1-0.1,0.1-0.2
				c0-0.1,0-0.1-0.1-0.2c0,0-0.1-0.1-0.1-0.1c-0.1,0-0.2,0-0.3,0h-0.2V26.5z"/>
			<path class="st0" d="M31.6,25.4h0.6v1l0.8-1h0.7l-1.1,1.4l1.2,1.7h-0.7L32.2,27v1.3h-0.6V25.4z"/>
			<path class="st0" d="M34.3,25.4H36v0.6h-1.1v0.5H36V27h-1.1v0.8H36v0.6h-1.7V25.4z"/>
			<path class="st0" d="M36.3,25.4h1.7v0.6h-0.6v2.5h-0.6v-2.5h-0.5V25.4z"/>
			<path class="st0" d="M38.4,25.4h0.6v3h-0.6V25.4z"/>
			<path class="st0" d="M39.6,25.4h0.6l1.3,2v-2h0.6v3h-0.6l-1.3-2v2h-0.6V25.4z"/>
			<path class="st0" d="M45.6,25.9l-0.4,0.4c-0.3-0.3-0.6-0.4-0.9-0.4c-0.3,0-0.5,0.1-0.8,0.3c-0.2,0.2-0.3,0.4-0.3,0.7
				c0,0.3,0.1,0.5,0.3,0.7c0.2,0.2,0.5,0.3,0.8,0.3c0.2,0,0.4,0,0.5-0.1c0.1-0.1,0.2-0.2,0.3-0.4h-0.9v-0.5h1.5l0,0.1
				c0,0.3-0.1,0.5-0.2,0.8c-0.1,0.2-0.3,0.4-0.5,0.5c-0.2,0.1-0.5,0.2-0.8,0.2c-0.3,0-0.6-0.1-0.8-0.2c-0.2-0.1-0.4-0.3-0.6-0.6
				c-0.1-0.3-0.2-0.5-0.2-0.8c0-0.4,0.1-0.8,0.4-1c0.3-0.4,0.7-0.5,1.2-0.5c0.3,0,0.5,0,0.7,0.1C45.2,25.5,45.4,25.7,45.6,25.9z"/>
			<path class="st0" d="M50.4,25.9L50,26.3c-0.3-0.3-0.6-0.4-0.9-0.4c-0.3,0-0.5,0.1-0.7,0.3c-0.2,0.2-0.3,0.4-0.3,0.7
				c0,0.2,0,0.4,0.1,0.5c0.1,0.2,0.2,0.3,0.4,0.4c0.2,0.1,0.3,0.1,0.5,0.1c0.2,0,0.3,0,0.5-0.1c0.1-0.1,0.3-0.2,0.5-0.3l0.4,0.4
				c-0.2,0.2-0.4,0.4-0.6,0.5c-0.2,0.1-0.4,0.1-0.7,0.1c-0.5,0-0.9-0.1-1.2-0.4c-0.3-0.3-0.4-0.7-0.4-1.1c0-0.3,0.1-0.6,0.2-0.8
				c0.1-0.2,0.3-0.4,0.6-0.6c0.3-0.1,0.5-0.2,0.8-0.2c0.3,0,0.5,0.1,0.7,0.2C50.1,25.5,50.3,25.7,50.4,25.9z"/>
			<path class="st0" d="M52.4,25.3c0.4,0,0.8,0.2,1.1,0.5c0.3,0.3,0.5,0.7,0.5,1.1c0,0.4-0.2,0.8-0.5,1.1c-0.3,0.3-0.7,0.5-1.1,0.5
				c-0.5,0-0.8-0.2-1.1-0.5c-0.3-0.3-0.5-0.7-0.5-1.1c0-0.3,0.1-0.6,0.2-0.8c0.1-0.2,0.3-0.4,0.6-0.6C51.9,25.4,52.2,25.3,52.4,25.3
				z M52.4,25.9c-0.3,0-0.5,0.1-0.7,0.3c-0.2,0.2-0.3,0.4-0.3,0.7c0,0.3,0.1,0.6,0.4,0.8c0.2,0.2,0.4,0.2,0.6,0.2
				c0.3,0,0.5-0.1,0.7-0.3c0.2-0.2,0.3-0.4,0.3-0.7c0-0.3-0.1-0.5-0.3-0.7C52.9,26,52.7,25.9,52.4,25.9z"/>
			<path class="st0" d="M54.6,25.4h0.6l1.3,2v-2H57v3h-0.6l-1.3-2v2h-0.6V25.4z"/>
			<path class="st0" d="M59.4,25.8l-0.4,0.4c-0.2-0.2-0.3-0.3-0.5-0.3c-0.1,0-0.1,0-0.2,0.1c0,0-0.1,0.1-0.1,0.1c0,0,0,0.1,0.1,0.1
				c0,0.1,0.2,0.2,0.4,0.4c0.2,0.2,0.4,0.3,0.4,0.3c0.1,0.1,0.2,0.2,0.2,0.3c0,0.1,0.1,0.2,0.1,0.4c0,0.2-0.1,0.5-0.3,0.6
				c-0.2,0.2-0.4,0.2-0.7,0.2c-0.2,0-0.4-0.1-0.6-0.2c-0.2-0.1-0.3-0.3-0.4-0.5l0.5-0.3c0.1,0.3,0.3,0.4,0.5,0.4
				c0.1,0,0.2,0,0.2-0.1c0.1-0.1,0.1-0.1,0.1-0.2c0-0.1,0-0.1-0.1-0.2c-0.1-0.1-0.2-0.2-0.3-0.3c-0.3-0.3-0.5-0.5-0.6-0.6
				c-0.1-0.1-0.1-0.3-0.1-0.4c0-0.2,0.1-0.4,0.2-0.5c0.2-0.2,0.4-0.2,0.6-0.2c0.2,0,0.3,0,0.4,0.1C59.1,25.5,59.2,25.6,59.4,25.8z"
				/>
			<path class="st0" d="M60,25.4h0.6v2c0,0.2,0,0.3,0,0.4c0,0.1,0.1,0.1,0.1,0.2c0.1,0,0.2,0.1,0.2,0.1c0.1,0,0.2,0,0.3-0.1
				c0.1,0,0.1-0.1,0.2-0.2c0-0.1,0-0.2,0-0.4v-1.9h0.6v1.8c0,0.3,0,0.5-0.1,0.6c0,0.1-0.1,0.2-0.2,0.3c-0.1,0.1-0.2,0.2-0.3,0.2
				c-0.1,0.1-0.3,0.1-0.4,0.1c-0.2,0-0.4-0.1-0.6-0.2c-0.2-0.1-0.3-0.2-0.3-0.4c-0.1-0.2-0.1-0.4-0.1-0.8V25.4z"/>
			<path class="st0" d="M62.8,25.4h0.6v2.5h0.8v0.6h-1.4V25.4z"/>
			<path class="st0" d="M64.4,25.4h1.7v0.6h-0.6v2.5h-0.6v-2.5h-0.5V25.4z"/>
			<path class="st0" d="M66.5,25.4h0.6v3h-0.6V25.4z"/>
			<path class="st0" d="M67.8,25.4h0.6l1.3,2v-2h0.6v3h-0.6l-1.3-2v2h-0.6V25.4z"/>
			<path class="st0" d="M73.8,25.9l-0.4,0.4c-0.3-0.3-0.6-0.4-0.9-0.4c-0.3,0-0.5,0.1-0.8,0.3c-0.2,0.2-0.3,0.4-0.3,0.7
				c0,0.3,0.1,0.5,0.3,0.7c0.2,0.2,0.5,0.3,0.8,0.3c0.2,0,0.4,0,0.5-0.1c0.1-0.1,0.2-0.2,0.3-0.4h-0.9v-0.5H74l0,0.1
				c0,0.3-0.1,0.5-0.2,0.8c-0.1,0.2-0.3,0.4-0.5,0.5c-0.2,0.1-0.5,0.2-0.8,0.2c-0.3,0-0.6-0.1-0.8-0.2c-0.2-0.1-0.4-0.3-0.6-0.6
				c-0.1-0.3-0.2-0.5-0.2-0.8c0-0.4,0.1-0.8,0.4-1c0.3-0.4,0.7-0.5,1.2-0.5c0.3,0,0.5,0,0.7,0.1C73.4,25.5,73.6,25.7,73.8,25.9z"/>
			<path class="st0" d="M77.4,25.8L77,26.2c-0.2-0.2-0.3-0.3-0.5-0.3c-0.1,0-0.1,0-0.2,0.1c0,0-0.1,0.1-0.1,0.1c0,0,0,0.1,0.1,0.1
				c0,0.1,0.2,0.2,0.4,0.4c0.2,0.2,0.4,0.3,0.4,0.3c0.1,0.1,0.2,0.2,0.2,0.3c0.1,0.1,0.1,0.2,0.1,0.4c0,0.2-0.1,0.5-0.3,0.6
				c-0.2,0.2-0.4,0.2-0.7,0.2c-0.2,0-0.4-0.1-0.6-0.2c-0.2-0.1-0.3-0.3-0.4-0.5l0.5-0.3c0.1,0.3,0.3,0.4,0.5,0.4
				c0.1,0,0.2,0,0.3-0.1c0.1-0.1,0.1-0.1,0.1-0.2c0-0.1,0-0.1-0.1-0.2c-0.1-0.1-0.2-0.2-0.3-0.3c-0.3-0.3-0.5-0.5-0.6-0.6
				c-0.1-0.1-0.1-0.3-0.1-0.4c0-0.2,0.1-0.4,0.2-0.5c0.2-0.2,0.4-0.2,0.6-0.2c0.2,0,0.3,0,0.4,0.1C77.1,25.5,77.2,25.6,77.4,25.8z"
				/>
			<path class="st0" d="M78.3,27.8c0.1,0,0.2,0,0.2,0.1c0.1,0.1,0.1,0.1,0.1,0.2c0,0.1,0,0.2-0.1,0.2c-0.1,0.1-0.1,0.1-0.2,0.1
				c-0.1,0-0.2,0-0.2-0.1C78,28.3,78,28.2,78,28.1c0-0.1,0-0.2,0.1-0.2C78.1,27.8,78.2,27.8,78.3,27.8z"/>
			<path class="st0" d="M80.2,25.4h0.6l1.2,3h-0.6l-0.2-0.6h-1.2l-0.2,0.6H79L80.2,25.4z M80.5,26.2l-0.4,1h0.8L80.5,26.2z"/>
			<path class="st0" d="M82.7,27.8c0.1,0,0.2,0,0.2,0.1C83,28,83,28,83,28.1c0,0.1,0,0.2-0.1,0.2c-0.1,0.1-0.1,0.1-0.2,0.1
				c-0.1,0-0.2,0-0.2-0.1c-0.1-0.1-0.1-0.1-0.1-0.2c0-0.1,0-0.2,0.1-0.2C82.5,27.8,82.6,27.8,82.7,27.8z"/>
			<path class="st0" d="M83.7,25.4h0.6c0.3,0,0.6,0,0.7,0.1c0.1,0.1,0.3,0.2,0.3,0.3c0.1,0.1,0.1,0.3,0.1,0.5c0,0.2,0,0.4-0.1,0.5
				C85.3,26.9,85.2,27,85,27l0.7,1.3h-0.6l-0.7-1.3h-0.1v1.3h-0.6V25.4z M84.3,26.5h0.2c0.2,0,0.3,0,0.4-0.1c0.1,0,0.1-0.1,0.1-0.2
				c0-0.1,0-0.1-0.1-0.2c0,0-0.1-0.1-0.1-0.1c-0.1,0-0.2,0-0.3,0h-0.2V26.5z"/>
			<path class="st0" d="M86.5,27.8c0.1,0,0.2,0,0.2,0.1c0.1,0.1,0.1,0.1,0.1,0.2c0,0.1,0,0.2-0.1,0.2c-0.1,0.1-0.1,0.1-0.2,0.1
				c-0.1,0-0.2,0-0.2-0.1c-0.1-0.1-0.1-0.1-0.1-0.2c0-0.1,0-0.2,0.1-0.2C86.3,27.8,86.4,27.8,86.5,27.8z"/>
			<path class="st0" d="M87.4,25.4H88v2.5h0.8v0.6h-1.4V25.4z"/>
		</g>
	</g>
</g>
</svg>
