<?xml version="1.0" encoding="utf-8"?>
<!-- Generator: Adobe Illustrator 23.0.3, SVG Export Plug-In . SVG Version: 6.00 Build 0)  -->
<svg version="1.1" id="Calque_1" xmlns="http://www.w3.org/2000/svg" xmlns:xlink="http://www.w3.org/1999/xlink" x="0px" y="0px"
	 viewBox="0 0 92.9 36.8" style="enable-background:new 0 0 92.9 36.8;" xml:space="preserve">
<style type="text/css">
	.st0{fill:#04AF98;}
	.st1{fill:url(#SVGID_1_);}
	.st2{fill:url(#SVGID_2_);}
	.st3{fill:url(#SVGID_3_);}
	.st4{fill:#1D1D1B;}
</style>
<g>
	<g>
		<path class="st0" d="M4.7,34.7l0.5,0.5c-0.2,0.2-0.4,0.4-0.6,0.5c-0.3,0.1-0.6,0.2-0.9,0.2c-0.2,0-0.4,0-0.5-0.1
			c-0.2,0-0.3-0.1-0.5-0.2c-0.1-0.1-0.3-0.2-0.4-0.3c-0.1-0.1-0.2-0.3-0.3-0.5c-0.1-0.2-0.1-0.4-0.1-0.6c0-0.6,0.2-1,0.6-1.4
			c0.4-0.4,0.9-0.6,1.5-0.6c0.6,0,1.1,0.2,1.4,0.7l-0.6,0.4C4.6,33.1,4.3,33,4,33c-0.4,0-0.7,0.1-0.9,0.3c-0.2,0.2-0.4,0.5-0.4,0.9
			c0,0.3,0.1,0.5,0.3,0.7c0.2,0.2,0.4,0.3,0.7,0.3C4.1,35.1,4.4,35,4.7,34.7z"/>
		<path class="st0" d="M5.6,34.8c0-0.5,0.2-0.8,0.5-1.1c0.3-0.3,0.7-0.5,1.1-0.5c0.4,0,0.6,0.1,0.9,0.3c0.2,0.2,0.3,0.5,0.3,0.8
			c0,0.5-0.1,0.9-0.4,1.2c-0.3,0.3-0.7,0.5-1.1,0.5c-0.4,0-0.7-0.1-0.9-0.3C5.7,35.4,5.6,35.1,5.6,34.8z M6.3,34.6
			c0,0.2,0,0.3,0.1,0.4c0.1,0.1,0.2,0.2,0.4,0.2c0.2,0,0.3-0.1,0.5-0.2c0.2-0.2,0.2-0.4,0.2-0.6c0-0.2,0-0.3-0.1-0.4
			c-0.1-0.1-0.2-0.2-0.4-0.2c-0.2,0-0.4,0.1-0.5,0.2S6.3,34.4,6.3,34.6z"/>
		<path class="st0" d="M8.7,35.8l0.5-2.6h0.7l0,0.2c0.2-0.1,0.4-0.2,0.6-0.2c0.6,0,0.9,0.3,0.9,0.8c0,0.1,0,0.3,0,0.4L11,35.8h-0.7
			l0.3-1.4c0-0.1,0-0.1,0-0.2c0-0.1,0-0.2-0.1-0.3c-0.1-0.1-0.2-0.1-0.3-0.1c-0.1,0-0.2,0-0.3,0.1C9.9,34,9.8,34,9.7,34.1l-0.3,1.7
			H8.7z"/>
		<path class="st0" d="M13,35.2c0,0,0.1-0.1,0.1-0.1s0-0.1-0.1-0.1c-0.1,0-0.2-0.1-0.3-0.1c-0.1,0-0.2-0.1-0.3-0.1
			c-0.1-0.1-0.2-0.1-0.3-0.2C12,34.3,12,34.2,12,34c0-0.3,0.1-0.5,0.3-0.6c0.2-0.2,0.4-0.2,0.7-0.2c0.5,0,0.8,0.2,1,0.5l-0.4,0.5
			c-0.1-0.2-0.3-0.3-0.6-0.3c-0.2,0-0.3,0.1-0.3,0.2c0,0,0,0.1,0.1,0.1c0.1,0,0.2,0.1,0.3,0.1c0.1,0,0.2,0.1,0.3,0.1
			c0.1,0.1,0.2,0.1,0.3,0.3c0.1,0.1,0.1,0.2,0.1,0.4c0,0.3-0.1,0.5-0.3,0.7c-0.2,0.1-0.4,0.2-0.7,0.2c-0.3,0-0.5-0.1-0.7-0.2
			c-0.2-0.1-0.3-0.3-0.4-0.5l0.5-0.4c0,0.1,0.1,0.2,0.2,0.3s0.2,0.1,0.4,0.1C12.9,35.2,12.9,35.2,13,35.2z"/>
		<path class="st0" d="M16.3,34.9l0.4,0.4c-0.2,0.2-0.3,0.3-0.5,0.4c-0.2,0.1-0.4,0.1-0.7,0.1c-0.3,0-0.6-0.1-0.8-0.3
			c-0.2-0.2-0.3-0.5-0.3-0.8c0-0.5,0.1-0.8,0.4-1.1c0.3-0.3,0.7-0.4,1.1-0.4c0.3,0,0.6,0.1,0.7,0.2c0.2,0.1,0.3,0.3,0.3,0.6
			c0,0.3-0.1,0.5-0.4,0.7c-0.3,0.2-0.6,0.3-1,0.3c-0.1,0-0.3,0-0.4,0c0.1,0.2,0.2,0.4,0.5,0.4C15.9,35.2,16.1,35.1,16.3,34.9z
			 M15.9,33.8c-0.2,0-0.3,0-0.4,0.1c-0.1,0.1-0.2,0.2-0.3,0.3c0,0,0.1,0,0.2,0c0.2,0,0.4,0,0.6-0.1c0.1,0,0.2-0.1,0.2-0.2
			C16.1,33.9,16,33.8,15.9,33.8z"/>
		<path class="st0" d="M17.2,35.8l0.5-2.6h0.7l-0.5,2.6H17.2z M17.8,32.5c0-0.1,0-0.2,0.1-0.3s0.2-0.1,0.3-0.1c0.1,0,0.2,0,0.3,0.1
			c0.1,0.1,0.1,0.2,0.1,0.3s0,0.2-0.1,0.3c-0.1,0.1-0.2,0.1-0.3,0.1c-0.1,0-0.2,0-0.3-0.1S17.8,32.6,17.8,32.5z"/>
		<path class="st0" d="M18.7,35.8l0.7-3.7h0.7l-0.7,3.7H18.7z"/>
		<path class="st0" d="M20.3,35.9c-0.1,0-0.1-0.1-0.2-0.1c0-0.1-0.1-0.1-0.1-0.2c0-0.1,0-0.3,0.1-0.4c0.1-0.1,0.2-0.1,0.4-0.1
			c0.3,0,0.4,0.2,0.4,0.5c0,0.3-0.1,0.5-0.3,0.7c-0.2,0.2-0.4,0.3-0.7,0.4l-0.1-0.4C20.1,36.1,20.3,36,20.3,35.9z"/>
		<path class="st0" d="M23.8,35.8h-0.8l0.7-3.5h1.5c0.9,0,1.3,0.4,1.3,1.1c0,0.4-0.2,0.8-0.5,1c-0.3,0.2-0.8,0.3-1.3,0.3h-0.7
			L23.8,35.8z M25.1,33h-0.7l-0.2,1h0.7c0.3,0,0.5,0,0.6-0.2c0.1-0.1,0.2-0.2,0.2-0.4C25.7,33.2,25.5,33,25.1,33z"/>
		<path class="st0" d="M29.4,33.2l-0.5,2.6h-0.7l0-0.2c-0.2,0.2-0.4,0.3-0.6,0.3c-0.3,0-0.5-0.1-0.6-0.2c-0.1-0.1-0.2-0.3-0.2-0.6
			c0-0.1,0-0.3,0-0.4l0.3-1.5h0.7l-0.3,1.4c0,0.1,0,0.1,0,0.2c0,0.1,0,0.2,0.1,0.3c0.1,0.1,0.1,0.1,0.3,0.1c0.3,0,0.4-0.1,0.6-0.3
			l0.3-1.7H29.4z"/>
		<path class="st0" d="M29.7,35.5l0.6-3.3H31l-0.2,1.2c0.2-0.1,0.4-0.2,0.7-0.2c0.3,0,0.5,0.1,0.7,0.3s0.3,0.4,0.3,0.7
			c0,0.3,0,0.6-0.1,0.8c-0.1,0.2-0.2,0.4-0.4,0.5c-0.2,0.1-0.3,0.2-0.5,0.3c-0.2,0.1-0.4,0.1-0.6,0.1c-0.2,0-0.4,0-0.6-0.1
			C30,35.7,29.8,35.6,29.7,35.5z M31.3,33.8c-0.3,0-0.5,0.1-0.6,0.3l-0.2,1c0.1,0.1,0.3,0.1,0.5,0.1c0.2,0,0.4-0.1,0.6-0.2
			c0.2-0.2,0.2-0.4,0.2-0.6c0-0.2,0-0.3-0.1-0.4C31.5,33.9,31.4,33.8,31.3,33.8z"/>
		<path class="st0" d="M32.9,35.8l0.7-3.7h0.7l-0.7,3.7H32.9z"/>
		<path class="st0" d="M34.3,35.8l0.5-2.6h0.7L35,35.8H34.3z M34.9,32.5c0-0.1,0-0.2,0.1-0.3s0.2-0.1,0.3-0.1c0.1,0,0.2,0,0.3,0.1
			c0.1,0.1,0.1,0.2,0.1,0.3s0,0.2-0.1,0.3c-0.1,0.1-0.2,0.1-0.3,0.1c-0.1,0-0.2,0-0.3-0.1S34.9,32.6,34.9,32.5z"/>
		<path class="st0" d="M37.9,34.9l0.5,0.4c-0.2,0.2-0.3,0.4-0.5,0.4c-0.2,0.1-0.4,0.1-0.7,0.1c-0.3,0-0.6-0.1-0.8-0.3
			c-0.2-0.2-0.3-0.5-0.3-0.8c0-0.5,0.1-0.8,0.4-1.1c0.3-0.3,0.7-0.4,1.1-0.4c0.3,0,0.5,0.1,0.7,0.2c0.2,0.1,0.3,0.3,0.3,0.5L38,34.2
			c-0.1-0.2-0.3-0.4-0.5-0.4c-0.2,0-0.4,0.1-0.6,0.2c-0.2,0.2-0.2,0.4-0.2,0.6c0,0.2,0.1,0.3,0.2,0.4c0.1,0.1,0.2,0.1,0.4,0.1
			C37.5,35.2,37.7,35.1,37.9,34.9z"/>
		<path class="st0" d="M38.8,35.8l0.5-2.6h0.7l-0.5,2.6H38.8z M39.3,32.5c0-0.1,0-0.2,0.1-0.3c0.1-0.1,0.2-0.1,0.3-0.1
			c0.1,0,0.2,0,0.3,0.1c0.1,0.1,0.1,0.2,0.1,0.3s0,0.2-0.1,0.3c-0.1,0.1-0.2,0.1-0.3,0.1c-0.1,0-0.2,0-0.3-0.1
			C39.4,32.7,39.3,32.6,39.3,32.5z"/>
		<path class="st0" d="M40.3,33.9l0.1-0.7h0.4l0.1-0.5h0.7l-0.1,0.5h0.7l-0.1,0.7h-0.8l-0.2,0.9c0,0.1,0,0.2,0,0.2
			c0,0.1,0.1,0.2,0.2,0.2c0.1,0,0.2-0.1,0.3-0.2l0.4,0.4c-0.2,0.3-0.5,0.4-0.9,0.4c-0.2,0-0.3-0.1-0.5-0.2c-0.1-0.1-0.2-0.2-0.2-0.4
			c0-0.1,0-0.2,0-0.3l0.2-1.1H40.3z"/>
		<path class="st0" d="M44.4,34.9l0.4,0.4c-0.2,0.2-0.3,0.3-0.5,0.4c-0.2,0.1-0.4,0.1-0.7,0.1c-0.3,0-0.6-0.1-0.8-0.3
			c-0.2-0.2-0.3-0.5-0.3-0.8c0-0.5,0.1-0.8,0.4-1.1c0.3-0.3,0.7-0.4,1.1-0.4c0.3,0,0.6,0.1,0.7,0.2c0.2,0.1,0.3,0.3,0.3,0.6
			c0,0.3-0.1,0.5-0.4,0.7c-0.3,0.2-0.6,0.3-1,0.3c-0.1,0-0.3,0-0.4,0c0.1,0.2,0.2,0.4,0.5,0.4C44,35.2,44.2,35.1,44.4,34.9z
			 M44,33.8c-0.2,0-0.3,0-0.4,0.1c-0.1,0.1-0.2,0.2-0.3,0.3c0,0,0.1,0,0.2,0c0.2,0,0.4,0,0.6-0.1c0.1,0,0.2-0.1,0.2-0.2
			C44.2,33.9,44.2,33.8,44,33.8z M45,32.1l-0.7,0.7l-0.5-0.4l0.7-0.8L45,32.1z"/>
		<path class="st0" d="M50.4,35.8h-0.9c-0.1-0.1-0.2-0.2-0.3-0.3c-0.1,0.1-0.3,0.2-0.5,0.3c-0.2,0.1-0.4,0.1-0.6,0.1
			c-0.4,0-0.7-0.1-1-0.2c-0.2-0.2-0.3-0.4-0.3-0.7c0-0.1,0-0.3,0.1-0.4c0.1-0.1,0.1-0.2,0.3-0.3c0.1-0.1,0.2-0.2,0.4-0.3
			c0.1-0.1,0.3-0.1,0.4-0.2c-0.1-0.2-0.2-0.4-0.2-0.6c0-0.2,0.1-0.4,0.3-0.6c0.2-0.2,0.5-0.2,0.8-0.2c0.3,0,0.5,0.1,0.6,0.2
			c0.1,0.1,0.2,0.3,0.2,0.5c0,0.4-0.2,0.7-0.7,1c0.1,0.2,0.2,0.4,0.4,0.6c0.3-0.3,0.5-0.6,0.6-1.1h0.7c-0.1,0.8-0.4,1.4-0.9,1.8
			C49.9,35.3,50.1,35.6,50.4,35.8z M48.1,35.2c0.3,0,0.5-0.1,0.6-0.2c-0.2-0.3-0.4-0.5-0.5-0.7c-0.3,0.1-0.4,0.2-0.5,0.3
			c-0.1,0.1-0.1,0.2-0.1,0.3c0,0.1,0,0.2,0.2,0.3S48,35.2,48.1,35.2z M48.5,33.1c0,0.1,0,0.1,0.1,0.2c0.1-0.1,0.2-0.2,0.2-0.3
			c0-0.1,0-0.1-0.1-0.1C48.6,32.9,48.5,33,48.5,33.1z"/>
		<path class="st0" d="M55.3,34.7l0.5,0.5c-0.2,0.2-0.4,0.4-0.6,0.5c-0.3,0.1-0.6,0.2-0.9,0.2c-0.2,0-0.4,0-0.5-0.1
			c-0.2,0-0.3-0.1-0.5-0.2s-0.3-0.2-0.4-0.3c-0.1-0.1-0.2-0.3-0.3-0.5c-0.1-0.2-0.1-0.4-0.1-0.6c0-0.6,0.2-1,0.6-1.4
			c0.4-0.4,0.9-0.6,1.5-0.6c0.6,0,1.1,0.2,1.4,0.7l-0.6,0.4c-0.2-0.3-0.5-0.4-0.8-0.4c-0.4,0-0.7,0.1-0.9,0.3
			c-0.2,0.2-0.4,0.5-0.4,0.9c0,0.3,0.1,0.5,0.3,0.7c0.2,0.2,0.4,0.3,0.7,0.3C54.7,35.1,55,35,55.3,34.7z"/>
		<path class="st0" d="M56.2,34.8c0-0.5,0.2-0.8,0.5-1.1c0.3-0.3,0.7-0.5,1.1-0.5c0.4,0,0.6,0.1,0.9,0.3c0.2,0.2,0.3,0.5,0.3,0.8
			c0,0.5-0.1,0.9-0.4,1.2c-0.3,0.3-0.7,0.5-1.1,0.5c-0.4,0-0.7-0.1-0.9-0.3C56.3,35.4,56.2,35.1,56.2,34.8z M56.9,34.6
			c0,0.2,0,0.3,0.1,0.4c0.1,0.1,0.2,0.2,0.4,0.2c0.2,0,0.3-0.1,0.5-0.2c0.2-0.2,0.2-0.4,0.2-0.6c0-0.2,0-0.3-0.1-0.4
			c-0.1-0.1-0.2-0.2-0.4-0.2c-0.2,0-0.4,0.1-0.5,0.2S56.9,34.4,56.9,34.6z"/>
		<path class="st0" d="M63.2,34.1l-0.3,1.7h-0.7l0.3-1.5c0-0.1,0-0.1,0-0.2c0-0.2-0.1-0.3-0.2-0.3c-0.2,0-0.3,0.1-0.5,0.3l-0.3,1.7
			h-0.7l0.3-1.7c0-0.1,0-0.2,0-0.3c0-0.1-0.1-0.1-0.2-0.1c-0.2,0-0.4,0.1-0.5,0.3L60,35.8h-0.7l0.5-2.6h0.7l0,0.2
			c0.2-0.1,0.4-0.2,0.6-0.2c0.3,0,0.5,0.1,0.6,0.3c0.1-0.1,0.2-0.2,0.3-0.2c0.1,0,0.3-0.1,0.4-0.1c0.2,0,0.4,0.1,0.5,0.2
			c0.1,0.1,0.2,0.3,0.2,0.5C63.2,33.9,63.2,34,63.2,34.1z"/>
		<path class="st0" d="M67.4,34.1l-0.3,1.7h-0.7l0.3-1.5c0-0.1,0-0.1,0-0.2c0-0.2-0.1-0.3-0.2-0.3c-0.2,0-0.3,0.1-0.5,0.3l-0.3,1.7
			h-0.7l0.3-1.7c0-0.1,0-0.2,0-0.3c0-0.1-0.1-0.1-0.2-0.1c-0.2,0-0.4,0.1-0.5,0.3l-0.3,1.7h-0.7l0.5-2.6h0.7l0,0.2
			c0.2-0.1,0.4-0.2,0.6-0.2c0.3,0,0.5,0.1,0.6,0.3c0.1-0.1,0.2-0.2,0.3-0.2c0.1,0,0.3-0.1,0.4-0.1c0.2,0,0.4,0.1,0.5,0.2
			c0.1,0.1,0.2,0.3,0.2,0.5C67.4,33.9,67.4,34,67.4,34.1z"/>
		<path class="st0" d="M70.5,33.2L70,35.8h-0.7l0-0.2c-0.2,0.2-0.4,0.3-0.6,0.3c-0.3,0-0.5-0.1-0.6-0.2c-0.1-0.1-0.2-0.3-0.2-0.6
			c0-0.1,0-0.3,0-0.4l0.3-1.5h0.7l-0.3,1.4c0,0.1,0,0.1,0,0.2c0,0.1,0,0.2,0.1,0.3c0.1,0.1,0.1,0.1,0.3,0.1c0.3,0,0.4-0.1,0.6-0.3
			l0.3-1.7H70.5z"/>
		<path class="st0" d="M70.8,35.8l0.5-2.6H72l0,0.2c0.2-0.1,0.4-0.2,0.6-0.2c0.6,0,0.9,0.3,0.9,0.8c0,0.1,0,0.3,0,0.4l-0.3,1.5h-0.7
			l0.3-1.4c0-0.1,0-0.1,0-0.2c0-0.1,0-0.2-0.1-0.3c-0.1-0.1-0.2-0.1-0.3-0.1c-0.1,0-0.2,0-0.3,0.1C72,34,71.9,34,71.8,34.1l-0.3,1.7
			H70.8z"/>
		<path class="st0" d="M73.9,35.8l0.5-2.6h0.7l-0.5,2.6H73.9z M74.4,32.5c0-0.1,0-0.2,0.1-0.3s0.2-0.1,0.3-0.1c0.1,0,0.2,0,0.3,0.1
			c0.1,0.1,0.1,0.2,0.1,0.3s0,0.2-0.1,0.3c-0.1,0.1-0.2,0.1-0.3,0.1c-0.1,0-0.2,0-0.3-0.1S74.4,32.6,74.4,32.5z"/>
		<path class="st0" d="M77.4,34.9l0.5,0.4c-0.2,0.2-0.3,0.4-0.5,0.4c-0.2,0.1-0.4,0.1-0.7,0.1c-0.3,0-0.6-0.1-0.8-0.3
			c-0.2-0.2-0.3-0.5-0.3-0.8c0-0.5,0.1-0.8,0.4-1.1c0.3-0.3,0.7-0.4,1.1-0.4c0.3,0,0.5,0.1,0.7,0.2c0.2,0.1,0.3,0.3,0.3,0.5
			l-0.5,0.3c-0.1-0.2-0.3-0.4-0.5-0.4c-0.2,0-0.4,0.1-0.6,0.2c-0.2,0.2-0.2,0.4-0.2,0.6c0,0.2,0.1,0.3,0.2,0.4
			c0.1,0.1,0.2,0.1,0.4,0.1C77.1,35.2,77.3,35.1,77.4,34.9z"/>
		<path class="st0" d="M80,35.8l0-0.2c-0.1,0.2-0.4,0.3-0.7,0.3c-0.3,0-0.5-0.1-0.7-0.3c-0.2-0.2-0.3-0.5-0.3-0.8
			c0-0.5,0.1-0.9,0.4-1.2c0.3-0.3,0.6-0.4,1-0.4c0.3,0,0.5,0.1,0.7,0.2l0-0.2h0.7l-0.5,2.6H80z M79.6,35.2c0.1,0,0.2,0,0.3-0.1
			c0.1-0.1,0.2-0.1,0.3-0.2l0.2-0.8c-0.1-0.2-0.3-0.3-0.5-0.3c-0.2,0-0.4,0.1-0.5,0.2c-0.1,0.2-0.2,0.4-0.2,0.6c0,0.2,0,0.3,0.1,0.4
			C79.3,35.2,79.5,35.2,79.6,35.2z"/>
		<path class="st0" d="M81.5,33.9l0.1-0.7h0.4l0.1-0.5h0.7l-0.1,0.5h0.7l-0.1,0.7h-0.8l-0.2,0.9c0,0.1,0,0.2,0,0.2
			c0,0.1,0.1,0.2,0.2,0.2c0.1,0,0.2-0.1,0.3-0.2l0.4,0.4c-0.2,0.3-0.5,0.4-0.9,0.4c-0.2,0-0.3-0.1-0.5-0.2c-0.1-0.1-0.2-0.2-0.2-0.4
			c0-0.1,0-0.2,0-0.3l0.2-1.1H81.5z"/>
		<path class="st0" d="M83.7,35.8l0.5-2.6h0.7l-0.5,2.6H83.7z M84.2,32.5c0-0.1,0-0.2,0.1-0.3s0.2-0.1,0.3-0.1c0.1,0,0.2,0,0.3,0.1
			c0.1,0.1,0.1,0.2,0.1,0.3s0,0.2-0.1,0.3c-0.1,0.1-0.2,0.1-0.3,0.1c-0.1,0-0.2,0-0.3-0.1S84.2,32.6,84.2,32.5z"/>
		<path class="st0" d="M85.2,34.8c0-0.5,0.2-0.8,0.5-1.1c0.3-0.3,0.7-0.5,1.1-0.5c0.4,0,0.6,0.1,0.9,0.3c0.2,0.2,0.3,0.5,0.3,0.8
			c0,0.5-0.1,0.9-0.4,1.2c-0.3,0.3-0.7,0.5-1.1,0.5c-0.4,0-0.7-0.1-0.9-0.3C85.3,35.4,85.2,35.1,85.2,34.8z M86,34.6
			c0,0.2,0,0.3,0.1,0.4c0.1,0.1,0.2,0.2,0.4,0.2c0.2,0,0.3-0.1,0.5-0.2c0.2-0.2,0.2-0.4,0.2-0.6c0-0.2,0-0.3-0.1-0.4
			c-0.1-0.1-0.2-0.2-0.4-0.2c-0.2,0-0.4,0.1-0.5,0.2S86,34.4,86,34.6z"/>
		<path class="st0" d="M88.3,35.8l0.5-2.6h0.7l0,0.2c0.2-0.1,0.4-0.2,0.6-0.2c0.6,0,0.9,0.3,0.9,0.8c0,0.1,0,0.3,0,0.4l-0.3,1.5H90
			l0.3-1.4c0-0.1,0-0.1,0-0.2c0-0.1,0-0.2-0.1-0.3c-0.1-0.1-0.2-0.1-0.3-0.1c-0.1,0-0.2,0-0.3,0.1c-0.1,0.1-0.2,0.1-0.3,0.2L89,35.8
			H88.3z"/>
	</g>
	<g>
		<g>
			<linearGradient id="SVGID_1_" gradientUnits="userSpaceOnUse" x1="30.0456" y1="14.6614" x2="69.2544" y2="14.6614">
				<stop  offset="0" style="stop-color:#2B2E36"/>
				<stop  offset="1" style="stop-color:#010101"/>
			</linearGradient>
			<path class="st1" d="M36.3,13.4H30v-1.8c0-0.1,0-0.3,0-0.4c0.2-6.1,5.2-11,11.4-11c3.2,0,6.2,1.4,8.2,3.5c2.1-2.2,5-3.5,8.2-3.5
				c6.2,0,11.2,4.9,11.4,11c0,0.1,0,0.3,0,0.4v1.8H63v-1.8c0-2.8-2.3-5.1-5.1-5.1c-2.8,0-5.1,2.3-5.1,5.1v-0.4h0c0,0.1,0,0.3,0,0.4
				v8.9h-6.3v-8.9c0-0.1,0-0.3,0-0.4h0v0.4c0-2.8-2.3-5.1-5.1-5.1c-2.8,0-5.1,2.3-5.1,5.1V13.4z M46.5,25.7v3.4h6.3v-3.4H46.5z"/>
			<linearGradient id="SVGID_2_" gradientUnits="userSpaceOnUse" x1="65.1061" y1="14.6616" x2="93.6496" y2="14.6616">
				<stop  offset="3.891940e-03" style="stop-color:#010101"/>
				<stop  offset="0.226" style="stop-color:#013E35"/>
				<stop  offset="0.4686" style="stop-color:#007969"/>
				<stop  offset="0.6476" style="stop-color:#009F8A"/>
				<stop  offset="0.7419" style="stop-color:#00AD96"/>
			</linearGradient>
			<path class="st2" d="M84.9,17.8h6.6c-0.2,0.9-0.5,1.8-0.9,2.7h-7.5C83.9,19.8,84.5,18.8,84.9,17.8z M70,11.2
				c1.3-2.7,4.1-4.6,7.4-4.6c3.4,0,6.3,2.1,7.5,5h6.6C90.1,5,84.3,0.2,77.4,0.2c-3.8,0-7.3,1.5-9.9,3.9C69,6.1,70,8.5,70,11.2
				C70,11.1,70,11.1,70,11.2z M71.7,20.5c-1.5-1.5-2.5-3.6-2.5-5.9c0-0.1,0-0.3,0-0.4H63c0,0.1,0,0.3,0,0.4c0,2.1,0.4,4.1,1.2,5.9
				H71.7z M68.1,25.7c2.5,2.1,5.8,3.4,9.3,3.4c3.5,0,6.8-1.3,9.3-3.4H68.1z"/>
			<linearGradient id="SVGID_3_" gradientUnits="userSpaceOnUse" x1="1.4004" y1="14.6617" x2="36.3487" y2="14.6617">
				<stop  offset="0.2581" style="stop-color:#00AD96"/>
				<stop  offset="0.3529" style="stop-color:#009F8A"/>
				<stop  offset="0.5329" style="stop-color:#007969"/>
				<stop  offset="0.7767" style="stop-color:#013E35"/>
				<stop  offset="1" style="stop-color:#010101"/>
			</linearGradient>
			<path class="st3" d="M20.2,14.2h16.2v6.3H20.2V14.2z M10.2,20.5C8.6,19,7.7,17,7.7,14.7c0-4.5,3.7-8.2,8.2-8.2
				c2.5,0,4.8,1.2,6.3,3h7.2C27.3,4.1,22,0.2,15.8,0.2c-8,0-14.4,6.5-14.4,14.4c0,2.1,0.4,4.1,1.2,5.9H10.2z M6.6,25.7
				c2.5,2.1,5.8,3.4,9.3,3.4c3.5,0,6.8-1.3,9.3-3.4H6.6z"/>
			<g>
				<path class="st4" d="M6.9,22.1l-0.4,0.4c-0.3-0.3-0.6-0.4-0.9-0.4c-0.3,0-0.5,0.1-0.7,0.3c-0.2,0.2-0.3,0.4-0.3,0.7
					c0,0.3,0.1,0.5,0.3,0.7c0.2,0.2,0.5,0.3,0.8,0.3c0.2,0,0.4,0,0.5-0.1c0.1-0.1,0.2-0.2,0.3-0.4H5.6v-0.5h1.5l0,0.1
					c0,0.3-0.1,0.5-0.2,0.8c-0.1,0.2-0.3,0.4-0.5,0.5c-0.2,0.1-0.5,0.2-0.8,0.2c-0.3,0-0.6-0.1-0.8-0.2c-0.2-0.1-0.4-0.3-0.6-0.6
					C4.1,23.7,4,23.4,4,23.1c0-0.4,0.1-0.8,0.4-1c0.3-0.4,0.7-0.5,1.2-0.5c0.3,0,0.5,0,0.7,0.1C6.6,21.8,6.8,21.9,6.9,22.1z"/>
				<path class="st4" d="M7.7,21.6h0.6v2.5h0.8v0.6H7.7V21.6z"/>
				<path class="st4" d="M11.1,21.5c0.4,0,0.8,0.2,1.1,0.5c0.3,0.3,0.5,0.7,0.5,1.1c0,0.4-0.2,0.8-0.5,1.1c-0.3,0.3-0.7,0.5-1.1,0.5
					c-0.5,0-0.8-0.2-1.1-0.5c-0.3-0.3-0.5-0.7-0.5-1.1c0-0.3,0.1-0.6,0.2-0.8c0.1-0.2,0.3-0.4,0.6-0.6
					C10.5,21.6,10.8,21.5,11.1,21.5z M11.1,22.1c-0.3,0-0.5,0.1-0.7,0.3c-0.2,0.2-0.3,0.4-0.3,0.7c0,0.3,0.1,0.6,0.4,0.8
					c0.2,0.2,0.4,0.2,0.6,0.2c0.3,0,0.5-0.1,0.7-0.3c0.2-0.2,0.3-0.4,0.3-0.7c0-0.3-0.1-0.5-0.3-0.7C11.6,22.2,11.4,22.1,11.1,22.1z
					"/>
				<path class="st4" d="M13.3,24.6v-3h0.5c0.3,0,0.5,0,0.6,0.1c0.2,0,0.3,0.1,0.4,0.3c0.1,0.1,0.2,0.3,0.2,0.5c0,0.1,0,0.2-0.1,0.3
					c0,0.1-0.1,0.2-0.2,0.3c0.2,0.1,0.3,0.2,0.4,0.3c0.1,0.1,0.1,0.3,0.1,0.5c0,0.2,0,0.3-0.1,0.5c-0.1,0.1-0.2,0.2-0.3,0.3
					c-0.1,0.1-0.3,0.1-0.6,0.1H13.3z M13.8,22.2v0.6H14c0.1,0,0.2,0,0.3-0.1c0.1-0.1,0.1-0.1,0.1-0.2c0-0.1,0-0.2-0.1-0.2
					c-0.1-0.1-0.2-0.1-0.3-0.1H13.8z M13.8,23.3v0.8H14c0.2,0,0.4,0,0.5-0.1c0.1-0.1,0.1-0.1,0.1-0.3c0-0.1,0-0.2-0.1-0.3
					c-0.1-0.1-0.3-0.1-0.5-0.1H13.8z"/>
				<path class="st4" d="M16.7,21.6h0.6l1.2,3h-0.6L17.6,24h-1.2l-0.2,0.6h-0.6L16.7,21.6z M17,22.4l-0.4,1h0.8L17,22.4z"/>
				<path class="st4" d="M19,21.6h0.6v2.5h0.8v0.6H19V21.6z"/>
				<path class="st4" d="M22.4,21.6H23l0.7,2.1l0.7-2.1h0.6l0.5,3h-0.6l-0.3-1.9l-0.6,1.9h-0.5l-0.6-1.9l-0.3,1.9h-0.6L22.4,21.6z"
					/>
				<path class="st4" d="M26.9,21.6h0.6l1.2,3H28L27.8,24h-1.2l-0.2,0.6h-0.6L26.9,21.6z M27.2,22.4l-0.4,1h0.8L27.2,22.4z"/>
				<path class="st4" d="M29.2,21.6h0.6c0.3,0,0.6,0,0.7,0.1c0.1,0.1,0.3,0.2,0.3,0.3c0.1,0.1,0.1,0.3,0.1,0.5c0,0.2,0,0.4-0.1,0.5
					c-0.1,0.1-0.2,0.2-0.4,0.3l0.7,1.3h-0.6l-0.7-1.3h-0.1v1.3h-0.6V21.6z M29.8,22.8h0.2c0.2,0,0.3,0,0.4-0.1
					c0.1,0,0.1-0.1,0.1-0.2c0-0.1,0-0.1-0.1-0.2c0,0-0.1-0.1-0.1-0.1c-0.1,0-0.2,0-0.3,0h-0.2V22.8z"/>
				<path class="st4" d="M31.7,21.6h0.6v1l0.8-1h0.7L32.7,23l1.2,1.7h-0.7l-0.9-1.3v1.3h-0.6V21.6z"/>
				<path class="st4" d="M34.3,21.6H36v0.6h-1.1v0.5H36v0.6h-1.1v0.8H36v0.6h-1.7V21.6z"/>
				<path class="st4" d="M36.3,21.6H38v0.6h-0.6v2.5h-0.6v-2.5h-0.5V21.6z"/>
				<path class="st4" d="M38.4,21.6h0.6v3h-0.6V21.6z"/>
				<path class="st4" d="M39.6,21.6h0.6l1.3,2v-2h0.6v3h-0.6l-1.3-2v2h-0.6V21.6z"/>
				<path class="st4" d="M45.6,22.1l-0.4,0.4c-0.3-0.3-0.6-0.4-0.9-0.4c-0.3,0-0.5,0.1-0.8,0.3c-0.2,0.2-0.3,0.4-0.3,0.7
					c0,0.3,0.1,0.5,0.3,0.7c0.2,0.2,0.5,0.3,0.8,0.3c0.2,0,0.4,0,0.5-0.1c0.1-0.1,0.2-0.2,0.3-0.4h-0.9v-0.5h1.5l0,0.1
					c0,0.3-0.1,0.5-0.2,0.8c-0.1,0.2-0.3,0.4-0.5,0.5c-0.2,0.1-0.5,0.2-0.8,0.2c-0.3,0-0.6-0.1-0.8-0.2c-0.2-0.1-0.4-0.3-0.6-0.6
					c-0.1-0.3-0.2-0.5-0.2-0.8c0-0.4,0.1-0.8,0.4-1c0.3-0.4,0.7-0.5,1.2-0.5c0.3,0,0.5,0,0.7,0.1C45.3,21.8,45.4,21.9,45.6,22.1z"/>
				<path class="st4" d="M50.5,22.1l-0.4,0.4c-0.3-0.3-0.6-0.4-0.9-0.4c-0.3,0-0.5,0.1-0.7,0.3c-0.2,0.2-0.3,0.4-0.3,0.7
					c0,0.2,0,0.4,0.1,0.5c0.1,0.2,0.2,0.3,0.4,0.4c0.2,0.1,0.3,0.1,0.5,0.1c0.2,0,0.3,0,0.5-0.1c0.1-0.1,0.3-0.2,0.5-0.3l0.4,0.4
					c-0.2,0.2-0.4,0.4-0.6,0.5c-0.2,0.1-0.4,0.1-0.7,0.1c-0.5,0-0.9-0.1-1.2-0.4c-0.3-0.3-0.4-0.7-0.4-1.2c0-0.3,0.1-0.6,0.2-0.8
					c0.1-0.2,0.3-0.4,0.6-0.6c0.3-0.1,0.5-0.2,0.8-0.2c0.3,0,0.5,0.1,0.7,0.2C50.1,21.8,50.3,21.9,50.5,22.1z"/>
				<path class="st4" d="M52.5,21.5c0.4,0,0.8,0.2,1.1,0.5c0.3,0.3,0.5,0.7,0.5,1.1c0,0.4-0.2,0.8-0.5,1.1c-0.3,0.3-0.7,0.5-1.1,0.5
					c-0.5,0-0.8-0.2-1.1-0.5c-0.3-0.3-0.5-0.7-0.5-1.1c0-0.3,0.1-0.6,0.2-0.8c0.1-0.2,0.3-0.4,0.6-0.6
					C51.9,21.6,52.2,21.5,52.5,21.5z M52.4,22.1c-0.3,0-0.5,0.1-0.7,0.3c-0.2,0.2-0.3,0.4-0.3,0.7c0,0.3,0.1,0.6,0.4,0.8
					c0.2,0.2,0.4,0.2,0.6,0.2c0.3,0,0.5-0.1,0.7-0.3c0.2-0.2,0.3-0.4,0.3-0.7c0-0.3-0.1-0.5-0.3-0.7C53,22.2,52.7,22.1,52.4,22.1z"
					/>
				<path class="st4" d="M54.6,21.6h0.6l1.3,2v-2h0.6v3h-0.6l-1.3-2v2h-0.6V21.6z"/>
				<path class="st4" d="M59.4,22L59,22.4c-0.2-0.2-0.3-0.3-0.5-0.3c-0.1,0-0.1,0-0.2,0.1c0,0-0.1,0.1-0.1,0.1c0,0,0,0.1,0.1,0.1
					c0,0.1,0.2,0.2,0.4,0.4c0.2,0.2,0.4,0.3,0.4,0.3c0.1,0.1,0.2,0.2,0.2,0.3c0,0.1,0.1,0.2,0.1,0.4c0,0.2-0.1,0.5-0.3,0.6
					c-0.2,0.2-0.4,0.2-0.7,0.2c-0.2,0-0.4-0.1-0.6-0.2c-0.2-0.1-0.3-0.3-0.4-0.5l0.5-0.3c0.1,0.3,0.3,0.4,0.5,0.4
					c0.1,0,0.2,0,0.3-0.1c0.1-0.1,0.1-0.1,0.1-0.2c0-0.1,0-0.1-0.1-0.2c-0.1-0.1-0.2-0.2-0.3-0.3c-0.3-0.3-0.5-0.5-0.6-0.6
					c-0.1-0.1-0.1-0.3-0.1-0.4c0-0.2,0.1-0.4,0.2-0.5c0.2-0.2,0.4-0.2,0.6-0.2c0.2,0,0.3,0,0.4,0.1C59.1,21.7,59.2,21.8,59.4,22z"/>
				<path class="st4" d="M60,21.6h0.6v2c0,0.2,0,0.3,0,0.4c0,0.1,0.1,0.1,0.1,0.2c0.1,0,0.2,0.1,0.2,0.1c0.1,0,0.2,0,0.3-0.1
					c0.1,0,0.1-0.1,0.2-0.2c0-0.1,0-0.2,0-0.4v-1.9h0.6v1.8c0,0.3,0,0.5-0.1,0.6c0,0.1-0.1,0.2-0.2,0.3c-0.1,0.1-0.2,0.2-0.3,0.2
					c-0.1,0.1-0.3,0.1-0.4,0.1c-0.2,0-0.4-0.1-0.6-0.2c-0.2-0.1-0.3-0.2-0.3-0.4C60.1,24,60,23.8,60,23.4V21.6z"/>
				<path class="st4" d="M62.8,21.6h0.6v2.5h0.8v0.6h-1.4V21.6z"/>
				<path class="st4" d="M64.4,21.6h1.7v0.6h-0.6v2.5H65v-2.5h-0.5V21.6z"/>
				<path class="st4" d="M66.5,21.6h0.6v3h-0.6V21.6z"/>
				<path class="st4" d="M67.8,21.6h0.6l1.3,2v-2h0.6v3h-0.6l-1.3-2v2h-0.6V21.6z"/>
				<path class="st4" d="M73.8,22.1l-0.4,0.4c-0.3-0.3-0.6-0.4-0.9-0.4c-0.3,0-0.5,0.1-0.8,0.3c-0.2,0.2-0.3,0.4-0.3,0.7
					c0,0.3,0.1,0.5,0.3,0.7c0.2,0.2,0.5,0.3,0.8,0.3c0.2,0,0.4,0,0.5-0.1c0.1-0.1,0.2-0.2,0.3-0.4h-0.9v-0.5H74l0,0.1
					c0,0.3-0.1,0.5-0.2,0.8c-0.1,0.2-0.3,0.4-0.5,0.5c-0.2,0.1-0.5,0.2-0.8,0.2c-0.3,0-0.6-0.1-0.8-0.2c-0.2-0.1-0.4-0.3-0.6-0.6
					c-0.1-0.3-0.2-0.5-0.2-0.8c0-0.4,0.1-0.8,0.4-1c0.3-0.4,0.7-0.5,1.2-0.5c0.3,0,0.5,0,0.7,0.1C73.4,21.8,73.6,21.9,73.8,22.1z"/>
				<path class="st4" d="M77.4,22L77,22.4c-0.2-0.2-0.3-0.3-0.5-0.3c-0.1,0-0.1,0-0.2,0.1c0,0-0.1,0.1-0.1,0.1c0,0,0,0.1,0.1,0.1
					c0,0.1,0.2,0.2,0.4,0.4c0.2,0.2,0.4,0.3,0.4,0.3c0.1,0.1,0.2,0.2,0.2,0.3c0.1,0.1,0.1,0.2,0.1,0.4c0,0.2-0.1,0.5-0.3,0.6
					c-0.2,0.2-0.4,0.2-0.7,0.2c-0.2,0-0.4-0.1-0.6-0.2c-0.2-0.1-0.3-0.3-0.4-0.5l0.5-0.3c0.1,0.3,0.3,0.4,0.5,0.4
					c0.1,0,0.2,0,0.3-0.1c0.1-0.1,0.1-0.1,0.1-0.2c0-0.1,0-0.1-0.1-0.2c-0.1-0.1-0.2-0.2-0.3-0.3c-0.3-0.3-0.5-0.5-0.6-0.6
					c-0.1-0.1-0.1-0.3-0.1-0.4c0-0.2,0.1-0.4,0.2-0.5c0.2-0.2,0.4-0.2,0.6-0.2c0.2,0,0.3,0,0.4,0.1C77.1,21.7,77.3,21.8,77.4,22z"/>
				<path class="st4" d="M78.3,24.1c0.1,0,0.2,0,0.2,0.1c0.1,0.1,0.1,0.1,0.1,0.2c0,0.1,0,0.2-0.1,0.2c-0.1,0.1-0.1,0.1-0.2,0.1
					c-0.1,0-0.2,0-0.2-0.1C78,24.5,78,24.5,78,24.4c0-0.1,0-0.2,0.1-0.2C78.2,24.1,78.2,24.1,78.3,24.1z"/>
				<path class="st4" d="M80.2,21.6h0.6l1.2,3h-0.6L81.2,24h-1.2l-0.2,0.6h-0.6L80.2,21.6z M80.5,22.4l-0.4,1h0.8L80.5,22.4z"/>
				<path class="st4" d="M82.7,24.1c0.1,0,0.2,0,0.2,0.1c0.1,0.1,0.1,0.1,0.1,0.2c0,0.1,0,0.2-0.1,0.2c-0.1,0.1-0.1,0.1-0.2,0.1
					c-0.1,0-0.2,0-0.2-0.1c-0.1-0.1-0.1-0.1-0.1-0.2c0-0.1,0-0.2,0.1-0.2C82.6,24.1,82.6,24.1,82.7,24.1z"/>
				<path class="st4" d="M83.8,21.6h0.6c0.3,0,0.6,0,0.7,0.1c0.1,0.1,0.3,0.2,0.3,0.3c0.1,0.1,0.1,0.3,0.1,0.5c0,0.2,0,0.4-0.1,0.5
					c-0.1,0.1-0.2,0.2-0.4,0.3l0.7,1.3h-0.6l-0.7-1.3h-0.1v1.3h-0.6V21.6z M84.3,22.8h0.2c0.2,0,0.3,0,0.4-0.1
					c0.1,0,0.1-0.1,0.1-0.2c0-0.1,0-0.1-0.1-0.2c0,0-0.1-0.1-0.1-0.1c-0.1,0-0.2,0-0.3,0h-0.2V22.8z"/>
				<path class="st4" d="M86.5,24.1c0.1,0,0.2,0,0.2,0.1c0.1,0.1,0.1,0.1,0.1,0.2c0,0.1,0,0.2-0.1,0.2c-0.1,0.1-0.1,0.1-0.2,0.1
					c-0.1,0-0.2,0-0.2-0.1c-0.1-0.1-0.1-0.1-0.1-0.2c0-0.1,0-0.2,0.1-0.2C86.3,24.1,86.4,24.1,86.5,24.1z"/>
				<path class="st4" d="M87.5,21.6H88v2.5h0.8v0.6h-1.4V21.6z"/>
			</g>
		</g>
	</g>
</g>
</svg>
